<svg width="1176" height="288" viewBox="0 0 1176 288" fill="none" xmlns="http://www.w3.org/2000/svg">
<path d="M0 222V0H16.0341V222H0Z" fill="black"/>
<path d="M121.959 225C108.277 225 96.9461 222.7 87.967 218.1C79.2017 213.5 72.5743 206.5 68.0847 197.1C63.809 187.5 61.6711 175.3 61.6711 160.5V66H77.7052V159.9C77.7052 171.5 79.3086 181.1 82.5154 188.7C85.7222 196.1 90.6394 201.6 97.2668 205.2C103.894 208.8 112.232 210.6 122.28 210.6C130.19 210.6 137.566 209.3 144.407 206.7C151.248 203.9 157.234 200.3 162.365 195.9C167.496 191.3 171.451 186.1 174.23 180.3C177.223 174.3 178.72 168 178.72 161.4V66H194.754V222H179.361L177.758 189H179.682C177.33 195.6 173.161 201.6 167.175 207C161.189 212.4 154.134 216.8 146.01 220.2C138.1 223.4 130.083 225 121.959 225Z" fill="black"/>
<path d="M241.436 222V66H256.828L258.432 103.8L254.584 103.2C256.508 96.8 259.501 91.1 263.563 86.1C267.839 81.1 272.756 76.9 278.314 73.5C284.086 69.9 290.393 67.2 297.234 65.4C304.076 63.6 311.344 62.7 319.041 62.7C327.165 62.7 334.54 64 341.168 66.6C348.009 69.2 353.888 73.9 358.805 80.7C363.722 87.5 367.571 97.1 370.35 109.5L363.936 105.3L366.181 100.2C368.319 95.4 371.419 90.8 375.481 86.4C379.543 81.8 384.353 77.8 389.911 74.4C395.47 70.8 401.67 68 408.511 66C415.566 63.8 423.049 62.7 430.959 62.7C442.076 62.7 451.589 65 459.499 69.6C467.409 74.2 473.396 81.3 477.458 90.9C481.733 100.5 483.871 112.7 483.871 127.5V222H467.837V128.1C467.837 116.5 466.234 107 463.027 99.6C460.034 92 455.437 86.4 449.238 82.8C443.251 79 435.769 77.1 426.79 77.1C418.452 77.1 410.863 78.5 404.021 81.3C397.18 83.9 391.301 87.5 386.384 92.1C381.467 96.7 377.619 102 374.839 108C372.06 113.8 370.67 120 370.67 126.6V222H354.636V128.1C354.636 116.5 353.033 107 349.826 99.6C346.833 92 342.237 86.4 336.037 82.8C329.837 79 322.248 77.1 313.268 77.1C305.145 77.1 297.662 78.5 290.821 81.3C283.98 83.9 278.1 87.5 273.183 92.1C268.266 96.7 264.418 102 261.639 108C258.859 113.8 257.47 120 257.47 126.6V222H241.436Z" fill="black"/>
<path d="M600.076 225C584.042 225 569.718 221.6 557.104 214.8C544.705 208 534.977 198.5 527.922 186.3C520.867 174.1 517.34 159.9 517.34 143.7C517.34 131.9 519.264 121.1 523.112 111.3C527.174 101.5 532.733 93 539.788 85.8C546.843 78.4 555.287 72.7 565.121 68.7C575.169 64.7 586.073 62.7 597.831 62.7C609.375 62.7 619.744 64.5 628.937 68.1C638.344 71.7 646.254 76.9 652.667 83.7C659.081 90.3 663.891 98.2 667.098 107.4C670.305 116.4 671.695 126.4 671.267 137.4L670.946 145.5H529.205V131.7H662.288L655.233 137.1V129.9C655.233 121.9 653.095 113.9 648.819 105.9C644.757 97.9 638.451 91.2 629.899 85.8C621.348 80.4 610.551 77.7 597.51 77.7C585.324 77.7 574.421 80.2 564.801 85.2C555.394 90.2 547.911 97.5 542.353 107.1C537.008 116.7 534.336 128.6 534.336 142.8C534.336 156.4 537.008 168.3 542.353 178.5C547.698 188.5 555.394 196.3 565.442 201.9C575.704 207.3 588.21 210 602.962 210C610.872 210 618.996 208.8 627.334 206.4C635.671 204 645.078 198.8 655.554 190.8L663.891 201.9C659.188 206.1 653.63 210 647.216 213.6C640.802 217 633.64 219.8 625.73 222C617.82 224 609.269 225 600.076 225Z" fill="black"/>
<path d="M703.668 288V66H719.061L720.665 106.5L716.496 110.1C719.275 101.1 723.978 93.1 730.606 86.1C737.447 78.9 745.678 73.2 755.298 69C764.919 64.8 775.394 62.7 786.725 62.7C801.476 62.7 814.838 66.2 826.81 73.2C838.996 80.2 848.617 89.8 855.672 102C862.94 114.2 866.575 128.2 866.575 144C866.575 159.6 863.047 173.5 855.992 185.7C849.151 197.9 839.637 207.5 827.452 214.5C815.479 221.5 801.904 225 786.725 225C775.394 225 764.919 222.9 755.298 218.7C745.678 214.5 737.447 208.9 730.606 201.9C723.978 194.7 719.275 186.6 716.496 177.6L719.703 181.5V288H703.668ZM784.16 210C796.987 210 808.318 207.2 818.152 201.6C827.986 195.8 835.682 187.9 841.241 177.9C846.799 167.9 849.579 156.6 849.579 144C849.579 131.2 846.692 119.8 840.92 109.8C835.362 99.8 827.665 92 817.831 86.4C807.997 80.6 796.773 77.7 784.16 77.7C771.546 77.7 760.215 80.6 750.167 86.4C740.333 92 732.53 99.8 726.757 109.8C721.199 119.6 718.42 130.9 718.42 143.7C718.42 156.7 721.306 168.2 727.078 178.2C732.85 188 740.654 195.8 750.488 201.6C760.322 207.2 771.546 210 784.16 210Z" fill="black"/>
<path d="M966.718 225C951.539 225 937.963 221.5 925.991 214.5C914.019 207.5 904.505 197.9 897.45 185.7C890.609 173.5 887.189 159.6 887.189 144C887.189 128.2 890.716 114.2 897.771 102C905.04 89.8 914.66 80.2 926.632 73.2C938.605 66.2 951.966 62.7 966.718 62.7C975.269 62.7 983.393 63.9 991.089 66.3C998.786 68.7 1005.73 72.1 1011.93 76.5C1018.13 80.7 1023.48 85.7 1027.97 91.5C1032.46 97.3 1035.66 103.6 1037.59 110.4L1031.17 106.5L1032.78 66H1048.17V222H1032.14V183L1037.59 177.3C1035.66 183.9 1032.46 190.1 1027.97 195.9C1023.48 201.7 1018.13 206.8 1011.93 211.2C1005.73 215.6 998.786 219 991.089 221.4C983.393 223.8 975.269 225 966.718 225ZM968.962 210C981.148 210 992.051 207.2 1001.67 201.6C1011.51 195.8 1019.2 188 1024.76 178.2C1030.53 168.2 1033.42 156.7 1033.42 143.7C1033.42 130.9 1030.64 119.6 1025.08 109.8C1019.52 99.8 1011.83 92 1001.99 86.4C992.372 80.6 981.362 77.7 968.962 77.7C956.349 77.7 945.125 80.6 935.291 86.4C925.67 92 918.081 99.8 912.522 109.8C906.964 119.6 904.185 130.9 904.185 143.7C904.185 156.3 906.857 167.6 912.202 177.6C917.76 187.6 925.35 195.5 934.97 201.3C944.804 207.1 956.135 210 968.962 210Z" fill="black"/>
<path d="M1095.77 222V0H1111.8V222H1095.77Z" fill="black"/>
<path d="M1159.97 222V0H1176V222H1159.97Z" fill="black"/>
</svg>
